<svg xmlns="http://www.w3.org/2000/svg" width="1049.497" height="282.248" viewBox="0 0 1049.497 282.248">
  <g id="Group_710" data-name="Group 710" transform="translate(-462.269 -232.416)">
    <text id="YOU_HAVE_WON_NRS._10000" data-name="YOU HAVE WON NRS. 10000" transform="translate(767 433)" fill="#003164" font-size="29" font-family="Roboto-Bold, Roboto" font-weight="700"><tspan x="0" y="0">YOU HAVE WON NRS. 10000</tspan></text>
    <g id="Group_682" data-name="Group 682" transform="translate(-2)">
      <text id="CONGRATULATIONS" transform="translate(961 387)" fill="#003164" font-size="76" font-family="Roboto-Bold, Roboto" font-weight="700"><tspan x="-355.211" y="0">CONGRATULATIONS</tspan></text>
      <path id="Path_1091" data-name="Path 1091" d="M-8254.834,10219.506v19.158l27.192-19.158Z" transform="translate(8861 -9724)" fill="#f1ea28"/>
      <path id="Path_1092" data-name="Path 1092" d="M-8170.166,10045.844l10.506,29.046,17.3-21.63Z" transform="translate(8814 -9774)" fill="#eb4949"/>
      <path id="Path_1101" data-name="Path 1101" d="M-8170.166,10045.844l10.506,29.046,17.3-21.63Z" transform="translate(9450 -9606)" fill="#eb4949"/>
      <path id="Path_1093" data-name="Path 1093" d="M-7931.128,10102.515l-10.372-45.547h57.907Z" transform="translate(8834 -9751.602)" fill="#6e53ff" stroke="#707070" stroke-width="1"/>
      <path id="Path_1102" data-name="Path 1102" d="M-7937.971,10074.108l-3.529-17.141h19.7Z" transform="translate(9316 -9581.713)" fill="#6e53ff" stroke="#707070" stroke-width="1"/>
      <path id="Path_1094" data-name="Path 1094" d="M-7670.81,10190.459l3.09,24.721,23.484-12.36V10184.9Z" transform="translate(9158 -9803)" fill="#f1ea28"/>
      <path id="Path_1106" data-name="Path 1106" d="M-7670.81,10190.459l3.09,24.721,23.484-12.36V10184.9Z" transform="translate(8380 -9885)" fill="#003164"/>
      <path id="Path_1095" data-name="Path 1095" d="M-7864.5,10193.549l-28.8,7.661s22.87,13.97,24.563,13.97S-7864.5,10193.549-7864.5,10193.549Z" transform="translate(9172 -9947)" fill="#4ff34f"/>
      <path id="Path_1109" data-name="Path 1109" d="M-7864.5,10193.549l-28.8,7.661s22.87,13.97,24.563,13.97S-7864.5,10193.549-7864.5,10193.549Z" transform="translate(8358 -9961)" fill="#f1ea28"/>
      <path id="Path_1100" data-name="Path 1100" d="M-7864.5,10193.549l-28.8,7.661s22.87,13.97,24.563,13.97S-7864.5,10193.549-7864.5,10193.549Z" transform="translate(9044 -9919)" fill="#4ff34f"/>
      <path id="Path_1096" data-name="Path 1096" d="M-7521.622,10071.182h44.188s-20.889,21.386-23.3,21.386S-7521.622,10071.182-7521.622,10071.182Z" transform="translate(8852 -9775)" fill="#eb4949"/>
      <path id="Path_1108" data-name="Path 1108" d="M-7521.622,10071.182h44.188s-20.889,21.386-23.3,21.386S-7521.622,10071.182-7521.622,10071.182Z" transform="translate(13561.304 3645.266) rotate(69)" fill="#c74a34"/>
      <path id="Path_1097" data-name="Path 1097" d="M-7504.75,10168.892l19.282-9.641-6.427,25.709Z" transform="translate(8852 -9775)" fill="#4ff34f"/>
      <path id="Path_1103" data-name="Path 1103" d="M-7504.75,10168.892l19.282-9.641-6.427,25.709Z" transform="translate(8076 -9828)" fill="#4ff34f"/>
      <path id="Path_1098" data-name="Path 1098" d="M-8150.7,10208.381v48.078l55.271-26.86Z" transform="translate(9395.354 -9912.506)" fill="#eb4949"/>
      <path id="Path_1105" data-name="Path 1105" d="M-8150.7,10208.381v26l29.889-14.525Z" transform="translate(8941.354 -9924.506)" fill="#eb4949"/>
      <path id="Path_1104" data-name="Path 1104" d="M-8150.7,10208.381v21.571l24.8-12.052Z" transform="translate(-167.322 -12601.74) rotate(-42)" fill="#eb4949"/>
      <path id="Path_1107" data-name="Path 1107" d="M-8150.7,10208.381v21.571l24.8-12.052Z" transform="translate(-309.322 -12629.74) rotate(-42)" fill="#eb4949"/>
      <path id="Path_1099" data-name="Path 1099" d="M-8303.35,10135.5l-7.231,16.521-19.281-16.521Z" transform="translate(9055 -9667)" fill="#6e53ff" stroke="#707070" stroke-width="1"/>
    </g>
  </g>
</svg>
