<svg xmlns="http://www.w3.org/2000/svg" xmlns:xlink="http://www.w3.org/1999/xlink" width="186.23" height="245.875" viewBox="0 0 186.23 245.875">
  <defs>
    <filter id="Path_1088" x="1" y="34.774" width="182.838" height="174.77" filterUnits="userSpaceOnUse">
      <feOffset dy="3" input="SourceAlpha"/>
      <feGaussianBlur stdDeviation="3" result="blur"/>
      <feFlood flood-opacity="0.161"/>
      <feComposite operator="in" in2="blur"/>
      <feComposite in="SourceGraphic"/>
    </filter>
  </defs>
  <g id="Group_681" data-name="Group 681" transform="translate(-995 -339)">
    <rect id="Rectangle_348" data-name="Rectangle 348" width="186.231" height="245.875" rx="13" transform="translate(1181.23 584.875) rotate(180)" fill="#003164"/>
    <g transform="matrix(1, 0, 0, 1, 995, 339)" filter="url(#Path_1088)">
      <path id="Path_1088-2" data-name="Path 1088" d="M682.04,501.926l25.469,51.605,56.95,8.275-41.209,40.169,9.728,56.72-50.938-26.78L631.1,658.7l9.728-56.72-41.209-40.169,56.95-8.275Z" transform="translate(-589.62 -461.15)" fill="#004da8"/>
    </g>
    <g id="Group_678" data-name="Group 678" transform="translate(1049 423.144)">
      <path id="Path_1071" data-name="Path 1071" d="M435.438,681.4h-60.6a2.874,2.874,0,0,1-2.874-2.874V632.192h66.348v46.339A2.875,2.875,0,0,1,435.438,681.4Z" transform="translate(-366.32 -603.818)" fill="#2e89e5"/>
      <path id="Path_1072" data-name="Path 1072" d="M371.965,632.192h66.348v9.643H371.965Z" transform="translate(-366.32 -603.818)" fill="#004da8"/>
      <path id="Path_1073" data-name="Path 1073" d="M438.388,609.941v11.946a2.311,2.311,0,0,1-2.311,2.309H363.059a2.309,2.309,0,0,1-2.31-2.309V609.941a2.309,2.309,0,0,1,2.31-2.309h73.018A2.31,2.31,0,0,1,438.388,609.941Z" transform="translate(-360.749 -591.62)" fill="#2e89e5"/>
      <path id="Path_1074" data-name="Path 1074" d="M409.451,609.46q-.757.88-1.482,1.784a67,67,0,0,0-4.934,7.018q-.686,1.123-1.328,2.271H385.961q1.379-3.131,3.021-6.139a81.282,81.282,0,0,1,6.77-10.426q.905-1.185,1.855-2.338c.379-.464.765-.92,1.156-1.375l4.31,3.713c.222.19.445.383.667.575q2.544,2.191,5.089,4.383C409.038,609.1,409.244,609.282,409.451,609.46Z" transform="translate(-373.271 -587.956)" fill="#004da8"/>
      <path id="Path_1075" data-name="Path 1075" d="M456.125,620.533H440.377q-.64-1.148-1.328-2.271a67.3,67.3,0,0,0-4.934-7.018q-.727-.9-1.484-1.784l.622-.534q2.547-2.194,5.09-4.383c.222-.191.445-.385.668-.575q2.156-1.857,4.31-3.713.587.681,1.156,1.374.952,1.154,1.855,2.339a81.4,81.4,0,0,1,6.772,10.426Q454.742,617.4,456.125,620.533Z" transform="translate(-396.451 -587.956)" fill="#004da8"/>
      <g id="Group_677" data-name="Group 677" transform="translate(9.255 12.299)">
        <path id="Path_1076" data-name="Path 1076" d="M408.7,609.462q-.757.879-1.482,1.783a67.382,67.382,0,0,0-14.122,32.4,67.807,67.807,0,0,1-5.478-8.546,71.217,71.217,0,0,0-8.481,6.5,81.486,81.486,0,0,1,17.719-39.975c.379-.464.765-.92,1.156-1.375q2.49,2.144,4.979,4.288,2.544,2.192,5.089,4.384C408.286,609.1,408.492,609.283,408.7,609.462Z" transform="translate(-379.136 -600.256)" fill="#ff4440"/>
        <path id="Path_1077" data-name="Path 1077" d="M467.437,641.606a71.214,71.214,0,0,0-8.481-6.5,67.759,67.759,0,0,1-5.478,8.546,67.382,67.382,0,0,0-14.122-32.4q-.727-.9-1.483-1.783c.207-.179.414-.357.622-.535q2.547-2.194,5.091-4.384,2.489-2.146,4.978-4.288.586.681,1.156,1.374a81.454,81.454,0,0,1,17.719,39.976Z" transform="translate(-408.309 -600.256)" fill="#ff4440"/>
        <path id="Path_1078" data-name="Path 1078" d="M425.593,618.546h12.363v11.072H425.593Z" transform="translate(-402.21 -609.34)" fill="#ff4440"/>
      </g>
      <path id="Path_1079" data-name="Path 1079" d="M458.344,615.75l-14.054,3.87a67.115,67.115,0,0,0-4.934-7.019l-.862-2.318-.622-1.672,5.712-2.712,6.134-2.914A81.3,81.3,0,0,1,458.344,615.75Z" transform="translate(-399.054 -589.312)" fill="#ea2f2f"/>
      <path id="Path_1080" data-name="Path 1080" d="M417.674,608.613l-.621,1.672-.861,2.318a66.961,66.961,0,0,0-4.934,7.019l-14.052-3.87a81.28,81.28,0,0,1,8.624-12.764l6.135,2.913Z" transform="translate(-378.856 -589.314)" fill="#ea2f2f"/>
      <path id="Path_1081" data-name="Path 1081" d="M460.3,576.357l-22.43,10.652,4.308,11.588,23.941-6.59a5.536,5.536,0,0,0,3.72-7.266l-1.976-5.314A5.535,5.535,0,0,0,460.3,576.357Z" transform="translate(-399.055 -575.82)" fill="#ff4440"/>
      <path id="Path_1082" data-name="Path 1082" d="M383.553,576.357l22.43,10.652L401.675,598.6l-23.94-6.59a5.535,5.535,0,0,1-3.719-7.266l1.975-5.314A5.536,5.536,0,0,1,383.553,576.357Z" transform="translate(-367.165 -575.82)" fill="#ff4440"/>
      <path id="Path_1083" data-name="Path 1083" d="M447.293,598.66a1.236,1.236,0,0,1-.667-2.278,60.787,60.787,0,0,1,8.848-4.555c6.686-2.7,11.151-2.559,13.269.431a1.236,1.236,0,1,1-2.017,1.43c-2.871-4.054-14.811,2.249-18.768,4.778A1.234,1.234,0,0,1,447.293,598.66Z" transform="translate(-403.118 -582.814)" fill="#ea2f2f"/>
      <path id="Path_1084" data-name="Path 1084" d="M405.6,598.66a1.232,1.232,0,0,1-.664-.194c-3.956-2.528-15.9-8.832-18.768-4.778a1.236,1.236,0,1,1-2.018-1.43c2.119-2.991,6.583-3.136,13.27-.431a60.681,60.681,0,0,1,8.847,4.555,1.236,1.236,0,0,1-.667,2.278Z" transform="translate(-372.258 -582.814)" fill="#ea2f2f"/>
      <path id="Path_1085" data-name="Path 1085" d="M434.481,590.137h-7.035a3.486,3.486,0,0,0-3.486,3.487v10.22a3.486,3.486,0,0,0,3.486,3.486h7.035a3.486,3.486,0,0,0,3.486-3.486v-10.22A3.486,3.486,0,0,0,434.481,590.137Z" transform="translate(-392.144 -582.931)" fill="#ea2f2f"/>
      <path id="Path_1086" data-name="Path 1086" d="M425.593,640.543h12.363v45.009H425.593Z" transform="translate(-392.955 -607.966)" fill="#ff4440"/>
      <path id="Path_1087" data-name="Path 1087" d="M425.593,640.543h12.363v5.439H425.593Z" transform="translate(-392.955 -607.966)" fill="#ea2f2f"/>
    </g>
  </g>
</svg>
